<?xml version="1.0" standalone="no"?>
<!DOCTYPE svg PUBLIC "-//W3C//DTD SVG 20010904//EN"
 "http://www.w3.org/TR/2001/REC-SVG-20010904/DTD/svg10.dtd">
<svg version="1.0" xmlns="http://www.w3.org/2000/svg"
 width="864.000000pt" height="864.000000pt" viewBox="0 0 864.000000 864.000000"
 preserveAspectRatio="xMidYMid meet">
<metadata>
Created by potrace 1.11, written by Peter Selinger 2001-2013
</metadata>
<g transform="translate(0.000000,864.000000) scale(0.100000,-0.100000)"
fill="#000000" stroke="none">
<path d="M715 6442 c-14 -65 -17 -106 -20 -252 -2 -94 2 -187 10 -235 7 -44
11 -82 9 -84 -2 -2 -69 -4 -148 -3 l-144 2 -6 -27 c-3 -16 -8 -41 -11 -58 -13
-66 -13 -342 -1 -425 7 -47 12 -86 11 -88 -1 -1 -68 -3 -148 -4 l-147 -1 -6
-36 c-4 -20 -9 -45 -11 -56 -13 -54 -11 -336 3 -425 8 -52 12 -106 9 -120 -3
-14 -8 -36 -11 -50 -3 -14 -7 -95 -9 -180 -3 -136 1 -199 20 -308 2 -15 -2
-64 -9 -109 -17 -108 -18 -316 0 -428 7 -49 13 -90 14 -90 0 0 60 0 133 0 72
1 140 -1 150 -3 18 -5 18 -7 1 -82 -21 -90 -6 -481 20 -507 4 -4 71 -8 149 -8
159 0 145 8 132 -80 -14 -86 -13 -350 1 -435 7 -47 14 -85 14 -85 0 0 338 0
750 0 l750 0 9 30 c21 66 32 377 16 455 -3 14 -8 45 -11 70 l-6 46 148 -1 148
0 7 35 c23 111 28 376 9 482 -6 34 -12 69 -12 77 -1 20 11 99 18 124 7 24 7
334 0 367 -3 13 -8 42 -12 65 -3 22 -7 41 -9 43 -1 2 4 35 12 75 14 70 20 364
9 417 -3 13 -8 42 -12 64 -3 22 -8 44 -10 48 -2 4 -240 7 -529 7 l-524 0 -7
-37 c-4 -20 -9 -46 -11 -57 -3 -11 -6 -90 -8 -175 -2 -139 4 -233 20 -310 l6
-25 220 0 c121 0 222 -2 224 -5 2 -3 -1 -25 -6 -50 -17 -82 -20 -357 -4 -458
11 -70 12 -105 4 -145 -17 -83 -20 -350 -5 -447 7 -47 12 -86 12 -87 -2 -2
-645 -5 -834 -3 -35 0 -61 4 -58 8 17 28 25 123 26 292 0 157 -3 197 -20 259
l-11 40 -142 -1 -142 -1 1 34 c1 19 4 59 9 89 8 59 9 306 1 355 -2 17 -8 48
-12 70 -8 50 -9 46 6 130 15 88 15 354 0 436 -6 34 -12 70 -12 78 0 22 11 102
18 124 10 32 6 340 -5 396 -19 94 -29 87 129 86 77 -1 144 1 149 4 9 6 19 53
26 121 5 46 6 297 2 335 -2 17 -7 55 -11 85 l-8 55 434 -1 c238 -1 439 -2 446
-3 10 -1 12 -10 6 -33 -13 -62 -15 -83 -19 -233 -3 -130 0 -178 17 -290 2 -11
6 -25 10 -30 6 -10 591 -15 601 -5 3 3 8 25 12 50 3 25 8 53 11 63 7 24 7 334
0 367 -3 13 -8 42 -12 64 -3 22 -8 44 -10 48 -3 4 -62 7 -132 7 -172 0 -174 0
-168 10 3 5 8 26 12 47 3 22 7 50 10 64 6 34 6 329 -1 360 -2 13 -7 42 -11 64
-3 22 -8 44 -10 47 -2 4 -341 7 -753 7 l-750 1 -6 -27z"/>
<path d="M3415 6432 c-4 -20 -10 -48 -12 -62 -11 -64 -10 -332 1 -410 7 -47
12 -87 10 -89 -2 -2 -68 -3 -147 -2 l-144 1 -12 -52 c-20 -81 -23 -356 -6
-467 8 -51 13 -103 10 -115 -15 -65 -17 -94 -20 -236 -3 -134 1 -191 17 -295
7 -39 14 -40 162 -40 l146 0 -5 -25 c-2 -14 -7 -38 -11 -55 -13 -68 -13 -342
1 -430 8 -49 14 -90 15 -90 0 0 336 0 748 0 738 0 747 -1 745 -20 -1 -11 -5
-36 -8 -55 -14 -82 -14 -347 1 -440 8 -52 11 -103 8 -114 -21 -65 -27 -365
-10 -476 7 -47 12 -86 11 -88 -3 -3 -801 -4 -1118 -2 l-68 0 5 38 c3 20 8 57
12 82 13 96 5 346 -14 440 l-8 35 -302 2 -301 1 -7 -36 c-4 -20 -9 -46 -11
-57 -3 -11 -6 -90 -8 -175 -3 -137 3 -229 20 -310 l6 -25 149 0 c83 0 150 -2
150 -5 0 -3 -5 -23 -11 -45 -17 -69 -20 -359 -4 -460 8 -49 14 -90 15 -90 246
-3 1800 2 1804 5 6 6 11 38 22 120 7 62 8 299 0 345 -2 17 -7 53 -11 80 l-6
51 147 -1 148 0 7 27 c28 104 28 412 0 538 -4 19 -4 53 0 75 4 22 10 58 14 80
7 47 9 327 1 352 -2 10 -7 40 -11 67 -3 27 -8 53 -11 58 -3 4 -70 8 -150 8
-163 0 -155 -5 -134 88 10 43 15 339 7 377 -3 11 -8 42 -11 69 -4 27 -9 53
-12 58 -3 4 -340 6 -749 5 -492 -1 -745 1 -745 8 0 6 5 37 10 70 10 59 15 351
7 390 -8 35 -21 130 -19 137 3 12 10 62 17 113 7 51 7 310 1 355 -2 14 -7 48
-11 75 l-7 50 590 0 c325 0 593 -3 596 -5 3 -3 0 -23 -5 -45 -25 -97 -15 -495
13 -540 6 -10 591 -15 601 -5 3 3 8 25 12 50 3 25 8 53 11 62 15 50 5 357 -14
448 l-8 35 -99 2 c-55 1 -124 2 -153 3 -34 0 -51 4 -47 10 4 6 9 27 11 48 2
20 7 53 10 72 6 40 6 305 0 335 -2 11 -7 42 -10 69 -4 27 -9 53 -12 57 -2 4
-409 8 -903 8 l-899 0 -7 -37z"/>
<path d="M6110 6417 c-15 -66 -21 -364 -9 -437 5 -30 11 -70 14 -88 3 -18 0
-54 -6 -80 -17 -70 -19 -352 -4 -455 10 -71 11 -104 0 -180 -16 -119 -16 -318
1 -432 10 -67 10 -101 2 -135 -17 -73 -19 -352 -3 -459 8 -51 13 -103 10 -115
-3 -11 -8 -34 -11 -51 -13 -66 -12 -351 2 -435 12 -76 12 -110 -3 -175 -13
-54 -11 -337 2 -423 11 -72 12 -105 4 -140 -25 -106 -18 -462 10 -527 8 -20
17 -20 907 -20 l898 0 8 35 c4 19 10 55 13 80 8 55 8 335 0 370 -3 14 -8 45
-11 70 l-6 46 148 -1 148 0 7 26 c18 67 28 379 15 444 -2 12 -7 45 -11 76 l-7
55 148 -1 148 0 12 65 c12 61 19 361 10 405 -5 28 -18 118 -18 130 0 6 5 41
11 79 11 65 16 348 7 391 -8 42 -20 130 -18 138 2 5 5 30 8 55 3 26 8 50 10
54 15 24 2 390 -16 457 l-6 26 -130 2 c-71 1 -137 2 -147 2 -16 1 -18 7 -12
44 23 151 22 395 -4 517 l-7 35 -142 1 c-78 0 -144 3 -147 6 -3 3 -1 38 5 79
11 74 15 353 5 399 -2 13 -7 42 -11 64 -3 22 -8 44 -10 48 -3 4 -409 7 -904 7
l-899 0 -11 -52z m1498 -556 c13 -1 13 -7 -4 -81 -11 -46 -13 -334 -3 -405 16
-118 5 -111 169 -110 78 0 143 -2 145 -5 2 -3 -1 -24 -6 -46 -17 -67 -19 -359
-4 -462 11 -78 11 -107 0 -175 -15 -94 -13 -373 3 -453 8 -38 7 -74 -2 -140
-17 -114 -18 -315 -2 -424 7 -47 12 -87 10 -89 -1 -1 -68 -3 -147 -2 -143 1
-145 0 -151 -22 -28 -112 -28 -488 0 -561 7 -18 26 -17 -291 -17 -102 0 -279
0 -393 1 l-209 0 14 63 c17 80 17 368 0 462 -7 39 -9 88 -6 110 4 22 10 58 14
80 7 44 8 318 2 350 -9 39 -21 130 -19 138 30 117 32 425 4 557 -5 20 -3 62 5
100 17 83 17 373 1 465 -10 56 -10 84 -1 140 13 70 18 368 8 415 -2 14 -8 45
-11 70 l-6 45 434 -1 c238 -1 439 -2 446 -3z"/>
</g>
</svg>
